# Blender 4.3.0
# www.blender.org
mtllib animation.mtl
o Mesh_0
v 0.000000 0.000000 0.000000
v 0.500000 0.000000 0.000000
v 1.000000 0.000000 0.000000
v 0.000000 0.500000 -0.000000
v 0.500000 0.500000 -0.000000
v 1.000000 0.500000 -0.000000
v 0.000000 1.000000 -0.000000
v 0.500000 1.000000 -0.000000
v 1.000000 1.000000 -0.000000
vn -0.0000 -0.0000 1.0000
vt 0.007812 0.007812
vt 0.007812 0.492187
vt 0.492187 0.492187
vt 0.492187 0.007812
vt 0.007812 0.976562
vt 0.492187 0.976562
vt 0.976562 0.492187
vt 0.976562 0.007812
vt 0.976562 0.976562
s 1
usemtl mat_0
f 1/1/1 2/2/1 5/3/1 4/4/1
f 2/2/1 3/5/1 6/6/1 5/3/1
f 4/4/1 5/3/1 8/7/1 7/8/1
f 5/3/1 6/6/1 9/9/1 8/7/1
o Mesh_1
v 0.000000 0.000000 0.000000
v 0.500000 0.000000 0.000000
v 1.000000 0.000000 0.000000
v 0.000000 0.500000 -0.000000
v 0.500000 0.500000 -0.000000
v 1.000000 0.500000 -0.000000
v 0.000000 1.000000 -0.000000
v 0.500000 1.000000 -0.000000
v 1.000000 1.000000 -0.000000
vn -0.0000 -0.0000 1.0000
vt 0.007812 0.007812
vt 0.007812 0.492187
vt 0.492187 0.492187
vt 0.492187 0.007812
vt 0.007812 0.976562
vt 0.492187 0.976562
vt 0.976562 0.492187
vt 0.976562 0.007812
vt 0.976562 0.976562
s 1
usemtl mat_1
f 10/10/2 11/11/2 14/12/2 13/13/2
f 11/11/2 12/14/2 15/15/2 14/12/2
f 13/13/2 14/12/2 17/16/2 16/17/2
f 14/12/2 15/15/2 18/18/2 17/16/2
o Mesh_2
v 0.000000 0.000000 0.000000
v 0.500000 0.000000 0.000000
v 1.000000 0.000000 0.000000
v 0.000000 0.500000 -0.000000
v 0.500000 0.500000 -0.000000
v 1.000000 0.500000 -0.000000
v 0.000000 1.000000 -0.000000
v 0.500000 1.000000 -0.000000
v 1.000000 1.000000 -0.000000
vn -0.0000 -0.0000 1.0000
vt 0.007812 0.007812
vt 0.007812 0.492187
vt 0.492187 0.492187
vt 0.492187 0.007812
vt 0.007812 0.976562
vt 0.492187 0.976562
vt 0.976562 0.492187
vt 0.976562 0.007812
vt 0.976562 0.976562
s 1
usemtl mat_2
f 19/19/3 20/20/3 23/21/3 22/22/3
f 20/20/3 21/23/3 24/24/3 23/21/3
f 22/22/3 23/21/3 26/25/3 25/26/3
f 23/21/3 24/24/3 27/27/3 26/25/3
o Mesh_3
v 0.000000 0.000000 0.000000
v 0.500000 0.000000 0.000000
v 1.000000 0.000000 0.000000
v 0.000000 0.500000 -0.000000
v 0.500000 0.500000 -0.000000
v 1.000000 0.500000 -0.000000
v 0.000000 1.000000 -0.000000
v 0.500000 1.000000 -0.000000
v 1.000000 1.000000 -0.000000
vn -0.0000 -0.0000 1.0000
vt 0.007812 0.007812
vt 0.007812 0.492187
vt 0.492187 0.492187
vt 0.492187 0.007812
vt 0.007812 0.976562
vt 0.492187 0.976562
vt 0.976562 0.492187
vt 0.976562 0.007812
vt 0.976562 0.976562
s 1
usemtl mat_3
f 28/28/4 29/29/4 32/30/4 31/31/4
f 29/29/4 30/32/4 33/33/4 32/30/4
f 31/31/4 32/30/4 35/34/4 34/35/4
f 32/30/4 33/33/4 36/36/4 35/34/4
o Mesh_4
v 0.000000 0.000000 0.000000
v 0.500000 0.000000 0.000000
v 1.000000 0.000000 0.000000
v 0.000000 0.500000 -0.000000
v 0.500000 0.500000 -0.000000
v 1.000000 0.500000 -0.000000
v 0.000000 1.000000 -0.000000
v 0.500000 1.000000 -0.000000
v 1.000000 1.000000 -0.000000
vn -0.0000 -0.0000 1.0000
vt 0.007812 0.007812
vt 0.007812 0.492187
vt 0.492187 0.492187
vt 0.492187 0.007812
vt 0.007812 0.976562
vt 0.492187 0.976562
vt 0.976562 0.492187
vt 0.976562 0.007812
vt 0.976562 0.976562
s 1
usemtl mat_4
f 37/37/5 38/38/5 41/39/5 40/40/5
f 38/38/5 39/41/5 42/42/5 41/39/5
f 40/40/5 41/39/5 44/43/5 43/44/5
f 41/39/5 42/42/5 45/45/5 44/43/5
o Mesh_5
v 0.000000 0.000000 0.000000
v 0.500000 0.000000 0.000000
v 1.000000 0.000000 0.000000
v 0.000000 0.500000 -0.000000
v 0.500000 0.500000 -0.000000
v 1.000000 0.500000 -0.000000
v 0.000000 1.000000 -0.000000
v 0.500000 1.000000 -0.000000
v 1.000000 1.000000 -0.000000
vn -0.0000 -0.0000 1.0000
vt 0.007812 0.007812
vt 0.007812 0.492187
vt 0.492187 0.492187
vt 0.492187 0.007812
vt 0.007812 0.976562
vt 0.492187 0.976562
vt 0.976562 0.492187
vt 0.976562 0.007812
vt 0.976562 0.976562
s 1
usemtl mat_5
f 46/46/6 47/47/6 50/48/6 49/49/6
f 47/47/6 48/50/6 51/51/6 50/48/6
f 49/49/6 50/48/6 53/52/6 52/53/6
f 50/48/6 51/51/6 54/54/6 53/52/6
o Mesh_6
v 0.000000 0.000000 0.000000
v 0.500000 0.000000 0.000000
v 1.000000 0.000000 0.000000
v 0.000000 0.500000 -0.000000
v 0.500000 0.500000 -0.000000
v 1.000000 0.500000 -0.000000
v 0.000000 1.000000 -0.000000
v 0.500000 1.000000 -0.000000
v 1.000000 1.000000 -0.000000
vn -0.0000 -0.0000 1.0000
vt 0.007812 0.007812
vt 0.007812 0.492187
vt 0.492187 0.492187
vt 0.492187 0.007812
vt 0.007812 0.976562
vt 0.492187 0.976562
vt 0.976562 0.492187
vt 0.976562 0.007812
vt 0.976562 0.976562
s 1
usemtl mat_6
f 55/55/7 56/56/7 59/57/7 58/58/7
f 56/56/7 57/59/7 60/60/7 59/57/7
f 58/58/7 59/57/7 62/61/7 61/62/7
f 59/57/7 60/60/7 63/63/7 62/61/7
