# Blender 4.2.1 LTS
# www.blender.org
mtllib Plane_anim01.mtl
o Plane_frame00
v -3.637379 0.000000 3.637379
v 3.637379 0.000000 3.637379
v -3.637379 0.000000 -3.637379
v 3.637379 0.000000 -3.637379
v -3.637379 0.000000 0.000000
v 0.000000 0.000000 3.637379
v 3.637379 0.000000 0.000000
v 0.000000 0.000000 -3.637379
v 0.000000 0.000000 0.000000
vn -0.0000 1.0000 -0.0000
vt 0.125000 0.875000
vt 0.250000 0.875000
vt 0.250000 1.000000
vt 0.125000 1.000000
vt 0.000000 0.875000
vt 0.000000 1.000000
vt 0.000000 0.750000
vt 0.125000 0.750000
vt 0.250000 0.750000
s 0
usemtl Material.003
f 9/1/1 7/2/1 4/3/1 8/4/1
f 5/5/1 9/1/1 8/4/1 3/6/1
f 1/7/1 6/8/1 9/1/1 5/5/1
f 6/8/1 2/9/1 7/2/1 9/1/1
o Plane_frame01
v -3.637379 0.000000 3.637379
v 3.637379 0.000000 3.637379
v -3.637379 0.000000 -3.637379
v 3.637379 0.000000 -3.637379
v -3.637379 0.000000 0.000000
v 0.000000 0.000000 3.637379
v 3.637379 0.000000 0.000000
v 0.000000 0.000000 -3.637379
v 0.000000 0.000000 0.000000
vn -0.0000 1.0000 -0.0000
vt 0.375000 0.875000
vt 0.500000 0.875000
vt 0.500000 1.000000
vt 0.375000 1.000000
vt 0.250000 0.875000
vt 0.250000 1.000000
vt 0.250000 0.750000
vt 0.375000 0.750000
vt 0.500000 0.750000
s 0
usemtl Material.003
f 18/10/2 16/11/2 13/12/2 17/13/2
f 14/14/2 18/10/2 17/13/2 12/15/2
f 10/16/2 15/17/2 18/10/2 14/14/2
f 15/17/2 11/18/2 16/11/2 18/10/2
o Plane_frame02
v -3.637379 0.000000 3.637379
v 3.637379 0.000000 3.637379
v -3.637379 0.000000 -3.637379
v 3.637379 0.000000 -3.637379
v -3.637379 0.000000 0.000000
v 0.000000 0.000000 3.637379
v 3.637379 0.000000 0.000000
v 0.000000 0.000000 -3.637379
v 0.000000 0.000000 0.000000
vn -0.0000 1.0000 -0.0000
vt 0.625000 0.875000
vt 0.750000 0.875000
vt 0.750000 1.000000
vt 0.625000 1.000000
vt 0.500000 0.875000
vt 0.500000 1.000000
vt 0.500000 0.750000
vt 0.625000 0.750000
vt 0.750000 0.750000
s 0
usemtl Material.003
f 27/19/3 25/20/3 22/21/3 26/22/3
f 23/23/3 27/19/3 26/22/3 21/24/3
f 19/25/3 24/26/3 27/19/3 23/23/3
f 24/26/3 20/27/3 25/20/3 27/19/3
o Plane_frame03
v -3.637379 0.000000 3.637379
v 3.637379 0.000000 3.637379
v -3.637379 0.000000 -3.637379
v 3.637379 0.000000 -3.637379
v -3.637379 0.000000 0.000000
v 0.000000 0.000000 3.637379
v 3.637379 0.000000 0.000000
v 0.000000 0.000000 -3.637379
v 0.000000 0.000000 0.000000
vn -0.0000 1.0000 -0.0000
vt 0.875000 0.875000
vt 1.000000 0.875000
vt 1.000000 1.000000
vt 0.875000 1.000000
vt 0.750000 0.875000
vt 0.750000 1.000000
vt 0.750000 0.750000
vt 0.875000 0.750000
vt 1.000000 0.750000
s 0
usemtl Material.003
f 36/28/4 34/29/4 31/30/4 35/31/4
f 32/32/4 36/28/4 35/31/4 30/33/4
f 28/34/4 33/35/4 36/28/4 32/32/4
f 33/35/4 29/36/4 34/29/4 36/28/4
o Plane_frame04
v -3.637379 0.000000 3.637379
v 3.637379 0.000000 3.637379
v -3.637379 0.000000 -3.637379
v 3.637379 0.000000 -3.637379
v -3.637379 0.000000 0.000000
v 0.000000 0.000000 3.637379
v 3.637379 0.000000 0.000000
v 0.000000 0.000000 -3.637379
v 0.000000 0.000000 0.000000
vn -0.0000 1.0000 -0.0000
vt 0.125000 0.625000
vt 0.250000 0.625000
vt 0.250000 0.750000
vt 0.125000 0.750000
vt 0.000000 0.625000
vt 0.000000 0.750000
vt 0.000000 0.500000
vt 0.125000 0.500000
vt 0.250000 0.500000
s 0
usemtl Material.003
f 45/37/5 43/38/5 40/39/5 44/40/5
f 41/41/5 45/37/5 44/40/5 39/42/5
f 37/43/5 42/44/5 45/37/5 41/41/5
f 42/44/5 38/45/5 43/38/5 45/37/5
o Plane_frame05
v -3.637379 0.000000 3.637379
v 3.637379 0.000000 3.637379
v -3.637379 0.000000 -3.637379
v 3.637379 0.000000 -3.637379
v -3.637379 0.000000 0.000000
v 0.000000 0.000000 3.637379
v 3.637379 0.000000 0.000000
v 0.000000 0.000000 -3.637379
v 0.000000 0.000000 0.000000
vn -0.0000 1.0000 -0.0000
vt 0.375000 0.625000
vt 0.500000 0.625000
vt 0.500000 0.750000
vt 0.375000 0.750000
vt 0.250000 0.625000
vt 0.250000 0.750000
vt 0.250000 0.500000
vt 0.375000 0.500000
vt 0.500000 0.500000
s 0
usemtl Material.003
f 54/46/6 52/47/6 49/48/6 53/49/6
f 50/50/6 54/46/6 53/49/6 48/51/6
f 46/52/6 51/53/6 54/46/6 50/50/6
f 51/53/6 47/54/6 52/47/6 54/46/6
o Plane_frame06
v -3.637379 0.000000 3.637379
v 3.637379 0.000000 3.637379
v -3.637379 0.000000 -3.637379
v 3.637379 0.000000 -3.637379
v -3.637379 0.000000 0.000000
v 0.000000 0.000000 3.637379
v 3.637379 0.000000 0.000000
v 0.000000 0.000000 -3.637379
v 0.000000 0.000000 0.000000
vn -0.0000 1.0000 -0.0000
vt 0.625000 0.625000
vt 0.750000 0.625000
vt 0.750000 0.750000
vt 0.625000 0.750000
vt 0.500000 0.625000
vt 0.500000 0.750000
vt 0.500000 0.500000
vt 0.625000 0.500000
vt 0.750000 0.500000
s 0
usemtl Material.003
f 63/55/7 61/56/7 58/57/7 62/58/7
f 59/59/7 63/55/7 62/58/7 57/60/7
f 55/61/7 60/62/7 63/55/7 59/59/7
f 60/62/7 56/63/7 61/56/7 63/55/7
o Plane_frame07
v -3.637379 0.000000 3.637379
v 3.637379 0.000000 3.637379
v -3.637379 0.000000 -3.637379
v 3.637379 0.000000 -3.637379
v -3.637379 0.000000 0.000000
v 0.000000 0.000000 3.637379
v 3.637379 0.000000 0.000000
v 0.000000 0.000000 -3.637379
v 0.000000 0.000000 0.000000
vn -0.0000 1.0000 -0.0000
vt 0.875000 0.625000
vt 1.000000 0.625000
vt 1.000000 0.750000
vt 0.875000 0.750000
vt 0.750000 0.625000
vt 0.750000 0.750000
vt 0.750000 0.500000
vt 0.875000 0.500000
vt 1.000000 0.500000
s 0
usemtl Material.003
f 72/64/8 70/65/8 67/66/8 71/67/8
f 68/68/8 72/64/8 71/67/8 66/69/8
f 64/70/8 69/71/8 72/64/8 68/68/8
f 69/71/8 65/72/8 70/65/8 72/64/8
o Plane_frame08
v -3.637379 0.000000 3.637379
v 3.637379 0.000000 3.637379
v -3.637379 0.000000 -3.637379
v 3.637379 0.000000 -3.637379
v -3.637379 0.000000 0.000000
v 0.000000 0.000000 3.637379
v 3.637379 0.000000 0.000000
v 0.000000 0.000000 -3.637379
v 0.000000 0.000000 0.000000
vn -0.0000 1.0000 -0.0000
vt 0.125000 0.375000
vt 0.250000 0.375000
vt 0.250000 0.500000
vt 0.125000 0.500000
vt 0.000000 0.375000
vt 0.000000 0.500000
vt 0.000000 0.250000
vt 0.125000 0.250000
vt 0.250000 0.250000
s 0
usemtl Material.003
f 81/73/9 79/74/9 76/75/9 80/76/9
f 77/77/9 81/73/9 80/76/9 75/78/9
f 73/79/9 78/80/9 81/73/9 77/77/9
f 78/80/9 74/81/9 79/74/9 81/73/9
o Plane_frame09
v -3.637379 0.000000 3.637379
v 3.637379 0.000000 3.637379
v -3.637379 0.000000 -3.637379
v 3.637379 0.000000 -3.637379
v -3.637379 0.000000 0.000000
v 0.000000 0.000000 3.637379
v 3.637379 0.000000 0.000000
v 0.000000 0.000000 -3.637379
v 0.000000 0.000000 0.000000
vn -0.0000 1.0000 -0.0000
vt 0.375000 0.375000
vt 0.500000 0.375000
vt 0.500000 0.500000
vt 0.375000 0.500000
vt 0.250000 0.375000
vt 0.250000 0.500000
vt 0.250000 0.250000
vt 0.375000 0.250000
vt 0.500000 0.250000
s 0
usemtl Material.003
f 90/82/10 88/83/10 85/84/10 89/85/10
f 86/86/10 90/82/10 89/85/10 84/87/10
f 82/88/10 87/89/10 90/82/10 86/86/10
f 87/89/10 83/90/10 88/83/10 90/82/10
o Plane_frame10
v -3.637379 0.000000 3.637379
v 3.637379 0.000000 3.637379
v -3.637379 0.000000 -3.637379
v 3.637379 0.000000 -3.637379
v -3.637379 0.000000 0.000000
v 0.000000 0.000000 3.637379
v 3.637379 0.000000 0.000000
v 0.000000 0.000000 -3.637379
v 0.000000 0.000000 0.000000
vn -0.0000 1.0000 -0.0000
vt 0.625000 0.375000
vt 0.750000 0.375000
vt 0.750000 0.500000
vt 0.625000 0.500000
vt 0.500000 0.375000
vt 0.500000 0.500000
vt 0.500000 0.250000
vt 0.625000 0.250000
vt 0.750000 0.250000
s 0
usemtl Material.003
f 99/91/11 97/92/11 94/93/11 98/94/11
f 95/95/11 99/91/11 98/94/11 93/96/11
f 91/97/11 96/98/11 99/91/11 95/95/11
f 96/98/11 92/99/11 97/92/11 99/91/11
o Plane_frame11
v -3.637379 0.000000 3.637379
v 3.637379 0.000000 3.637379
v -3.637379 0.000000 -3.637379
v 3.637379 0.000000 -3.637379
v -3.637379 0.000000 0.000000
v 0.000000 0.000000 3.637379
v 3.637379 0.000000 0.000000
v 0.000000 0.000000 -3.637379
v 0.000000 0.000000 0.000000
vn -0.0000 1.0000 -0.0000
vt 0.875000 0.375000
vt 1.000000 0.375000
vt 1.000000 0.500000
vt 0.875000 0.500000
vt 0.750000 0.375000
vt 0.750000 0.500000
vt 0.750000 0.250000
vt 0.875000 0.250000
vt 1.000000 0.250000
s 0
usemtl Material.003
f 108/100/12 106/101/12 103/102/12 107/103/12
f 104/104/12 108/100/12 107/103/12 102/105/12
f 100/106/12 105/107/12 108/100/12 104/104/12
f 105/107/12 101/108/12 106/101/12 108/100/12
o Plane_frame12
v -3.637379 0.000000 3.637379
v 3.637379 0.000000 3.637379
v -3.637379 0.000000 -3.637379
v 3.637379 0.000000 -3.637379
v -3.637379 0.000000 0.000000
v 0.000000 0.000000 3.637379
v 3.637379 0.000000 0.000000
v 0.000000 0.000000 -3.637379
v 0.000000 0.000000 0.000000
vn -0.0000 1.0000 -0.0000
vt 0.125000 0.125000
vt 0.250000 0.125000
vt 0.250000 0.250000
vt 0.125000 0.250000
vt 0.000000 0.125000
vt 0.000000 0.250000
vt 0.000000 0.000000
vt 0.125000 0.000000
vt 0.250000 0.000000
s 0
usemtl Material.003
f 117/109/13 115/110/13 112/111/13 116/112/13
f 113/113/13 117/109/13 116/112/13 111/114/13
f 109/115/13 114/116/13 117/109/13 113/113/13
f 114/116/13 110/117/13 115/110/13 117/109/13
o Plane_frame13
v -3.637379 0.000000 3.637379
v 3.637379 0.000000 3.637379
v -3.637379 0.000000 -3.637379
v 3.637379 0.000000 -3.637379
v -3.637379 0.000000 0.000000
v 0.000000 0.000000 3.637379
v 3.637379 0.000000 0.000000
v 0.000000 0.000000 -3.637379
v 0.000000 0.000000 0.000000
vn -0.0000 1.0000 -0.0000
vt 0.375000 0.125000
vt 0.500000 0.125000
vt 0.500000 0.250000
vt 0.375000 0.250000
vt 0.250000 0.125000
vt 0.250000 0.250000
vt 0.250000 0.000000
vt 0.375000 0.000000
vt 0.500000 0.000000
s 0
usemtl Material.003
f 126/118/14 124/119/14 121/120/14 125/121/14
f 122/122/14 126/118/14 125/121/14 120/123/14
f 118/124/14 123/125/14 126/118/14 122/122/14
f 123/125/14 119/126/14 124/119/14 126/118/14
o Plane_frame14
v -3.637379 0.000000 3.637379
v 3.637379 0.000000 3.637379
v -3.637379 0.000000 -3.637379
v 3.637379 0.000000 -3.637379
v -3.637379 0.000000 0.000000
v 0.000000 0.000000 3.637379
v 3.637379 0.000000 0.000000
v 0.000000 0.000000 -3.637379
v 0.000000 0.000000 0.000000
vn -0.0000 1.0000 -0.0000
vt 0.625000 0.125000
vt 0.750000 0.125000
vt 0.750000 0.250000
vt 0.625000 0.250000
vt 0.500000 0.125000
vt 0.500000 0.250000
vt 0.500000 0.000000
vt 0.625000 0.000000
vt 0.750000 0.000000
s 0
usemtl Material.003
f 135/127/15 133/128/15 130/129/15 134/130/15
f 131/131/15 135/127/15 134/130/15 129/132/15
f 127/133/15 132/134/15 135/127/15 131/131/15
f 132/134/15 128/135/15 133/128/15 135/127/15
